<svg xmlns="http://www.w3.org/2000/svg" width="24" height="24">
<defs>
    <linearGradient id="grad1" x1="0%" y1="0%" x2="0%" y2="100%">
      <stop offset="0%" style="stop-color: rgb(255,255,0); stop-opacity: 1" />
      <stop offset="100%" style="stop-color: rgb(255,0,0); stop-opacity: 1" />
    </linearGradient>
    <linearGradient id="grad2" x1="40%" y1="0%" x2="100%" y2="100%">
      <stop offset="0%" style="stop-color: rgb(255,0,0); stop-opacity: 1" />
      <stop offset="100%" style="stop-color: rgb(255,255,0); stop-opacity: 1" />
    </linearGradient>
    <linearGradient id="grad3" x1="0%" y1="45%" x2="0%" y2="100%">
      <stop offset="0%" style="stop-color: rgb(255,0,0); stop-opacity: 1" />
      <stop offset="100%" style="stop-color: rgb(255,255,0); stop-opacity: 1" />
    </linearGradient>
    <linearGradient id="grad4" x1="0%" y1="0%" x2="100%" y2="100%">
      <stop offset="0%" style="stop-color: rgb(25,0,255); stop-opacity: 1" />
      <stop offset="100%" style="stop-color: rgb(0,255,250); stop-opacity: 1" />
    </linearGradient>
    <linearGradient id="grad5" x1="0%" y1="0%" x2="100%" y2="100%">
      <stop offset="0%" style="stop-color: rgb(200,200,150); stop-opacity: 1" />
      <stop offset="100%" style="stop-color: rgb(52,150,25); stop-opacity: 1" />
    </linearGradient>
</defs>
    <path fill="none" d="M 0 0 h 24 v 24 H 0 z"/>
    <path transform="matrix(1,0,0,1,0,0)" fill="url(#grad1)" d="M 13 19 C 19 19 10.2 19 12.9 19 c 3.9 0 7 -3.1 7 -7 h -2 c 0 2.8 -2.2 5 -5 5 z"/>
    <path transform="matrix(0,1,-1,0,38.5,0.4)" fill="url(#grad3)" d="M 11.7 34.4 C 17.7 34.4 8.9 34.4 11.6 34.4 c 3.9 0 7 -3.1 7 -7 h -2 c 0 2.8 -2.2 5 -5 5 z"/>
    <path fill="url(#grad2)" d="M 11 17 h 2 V 22 h -2 z"/>
    <path fill="url(#grad5)" d="M 11 12.5 V 5.6 C 11 6 12 3 13 6 V 13.8 z"/>
    <path fill="url(#grad4)" d="M 12 15 c 1.7 0 3 -1.3 3 -3 L 15 5 c 0 -1.7 -1.3 -3 -3 -3 S 9 3.3 9 5 v 7 c 0 1.7 1.3 3 3 3 z m -1 -9 c 0 -0.6 0.5 -1 1 -1 s 1 0.5 1 1 v 6 c 0 0.6 -0.5 1 -1 1 s -1 -0.5 -1 -1 V 5 z"/>
</svg>
